<svg width="256" height="256" viewBox="0 0 256 256" fill="none" xmlns="http://www.w3.org/2000/svg">
  <rect width="256" height="256" rx="128" fill="#10131E"/>
  <rect x="14" y="14" width="228" height="228" rx="114" fill="#F8FAFC"/>
  <rect x="24" y="24" width="208" height="208" rx="104" fill="#111421"/>
  <path d="M128 46C91 46 66 75 66 113V158C66 184 88 206 114 206H142C168 206 190 184 190 158V113C190 75 165 46 128 46Z" fill="#202434"/>
  <path d="M84 118C84 85 101 64 128 64C155 64 172 85 172 118V150C172 177 154 194 128 194C102 194 84 177 84 150V118Z" fill="#F1D4C6"/>
  <path d="M82 116C82 74 102 54 129 54C154 54 177 75 177 112V122C158 116 146 99 142 80C131 103 111 119 82 116Z" fill="#11131A"/>
  <path d="M93 123C95 118 99 116 104 117" stroke="#171923" stroke-width="7" stroke-linecap="round"/>
  <path d="M153 117C158 116 162 118 165 123" stroke="#171923" stroke-width="7" stroke-linecap="round"/>
  <path d="M111 156C121 164 135 164 145 156" stroke="#B66F62" stroke-width="6" stroke-linecap="round"/>
  <path d="M72 221C78 194 99 176 128 176C157 176 178 194 184 221H72Z" fill="#0A0B11"/>
  <path d="M101 184L128 215L155 184" stroke="#22D3EE" stroke-width="8" stroke-linecap="round" stroke-linejoin="round"/>
  <path d="M74 221H182" stroke="#9BE63F" stroke-width="7" stroke-linecap="round"/>
  <text x="128" y="241" text-anchor="middle" fill="#F8FAFC" font-family="Arial, sans-serif" font-size="22" font-weight="800">WY</text>
</svg>
